<svg xmlns="http://www.w3.org/2000/svg" xmlns:xlink="http://www.w3.org/1999/xlink" preserveAspectRatio="xMidYMid meet" version="1.0" viewBox="57.5 65.2 877.7 872.8" zoomAndPan="magnify" style="fill: rgb(0, 0, 0);" original_string_length="1466" width="1600px" height="1590.89px"><g id="__id6_sod1y35n6"><path d="M786.92,322.88c11.16-14.61,22.87-29.92,35.02-45.83c95.53,121.21,113.27,358.6-57.06,515.81 c-157.27,145.15-404.17,139.01-554.52-13.69C59.07,625.53,57.51,380.54,205.93,225.16C358.76,65.19,600.58,70.31,738.92,187.25 c-13.65,12.14-27.34,24.31-43.5,38.69c-81.62-59.21-177.84-79.13-281.3-55.09c-78.65,18.28-142.91,61.44-191.22,126.51 c-99.38,133.85-88.6,314.85,25.24,434.83c113.85,120,293.88,140.44,433.33,50.65C796.21,708.95,896.24,528.65,786.92,322.88z" style="fill: inherit;"/></g><g id="__id7_sod1y35n6"><path d="M432.3,530.6c47.58-46.19,93.49-89.54,138.02-134.26c89.16-89.51,177.55-179.79,266.33-269.69 c5.52-5.59,11.09-11.33,17.47-15.79c10.18-7.12,20.9-5.61,30.08,2.04c10.19,8.48,13.15,19.77,7.52,31.94 c-2.84,6.15-7.67,11.43-11.87,16.9c-139.5,181.55-279.03,363.08-418.55,544.6c-2.41,3.13-4.67,6.38-7.27,9.35 c-19.04,21.71-36.04,21.23-52.34-3.21c-27.36-41.05-53.67-82.8-80.4-124.27c-19.78-30.69-40.16-61.01-59.13-92.2 c-17.12-28.14-9.66-59.18,16.39-74.79c21.02-12.59,39.79-9.99,58.36,9.35c28.71,29.9,56.89,60.31,85.36,90.44 C425.59,524.54,429.28,527.73,432.3,530.6z" style="fill: inherit;"/></g></svg>