<svg xmlns="http://www.w3.org/2000/svg" xmlns:xlink="http://www.w3.org/1999/xlink" preserveAspectRatio="xMidYMid meet" version="1.0" viewBox="-2.9 -0.0 495.6 388.0" zoomAndPan="magnify" style="fill: rgb(33, 33, 33);" original_string_length="8549" width="333.1072760100672px" height="260.42932488059796px"><g id="__id4_sukzyw0iog"><path d="M438.7817688,290.6297302c-14.2412109-13.2636719-30.0410156-25.0214844-46.9609375-34.9482422 c-1.3515625-0.7919922-3.0419922-0.7236328-4.3251953,0.1787109c-27.7128906,19.4921875-54.2558594,27.5898438-78.890625,24.0546875 c-38.3046875-5.4892578-60.5371246-37.0839844-100.8955231-94.440918 c-9.1391602-12.9882812-19.4980469-27.7099609-31.0205078-43.4545898 C141.6269684,94.1077499,103.061058,46.7654686,62.0625191,1.3064836c-0.052063-0.0576782-0.1143799-0.0991211-0.1689453-0.1530762 c-0.0996094-0.0986938-0.2004395-0.1929321-0.3081665-0.2792968c-0.1002808-0.0804443-0.2032471-0.1525879-0.3092651-0.2220459 c-0.112793-0.0738525-0.2261353-0.1431885-0.3447876-0.2047119c-0.1130371-0.0586548-0.227356-0.109314-0.3445435-0.1565552 c-0.1221924-0.0493164-0.2442627-0.0939331-0.3703003-0.1308594c-0.1196289-0.0349731-0.2393799-0.062439-0.3613281-0.0861206 c-0.1307983-0.0255127-0.2606812-0.0458984-0.3933105-0.0582886c-0.1208496-0.0112305-0.2405396-0.0152588-0.3618774-0.0155029 c-0.1355591-0.0004272-0.2694702,0.0043335-0.4048462,0.0177612c-0.1203613,0.0119019-0.2386475,0.031189-0.3578491,0.0540771 c-0.1328735,0.0254517-0.2634888,0.055603-0.394104,0.0949097C57.8221626,0.2030291,57.70467,0.2474016,57.58675,0.2954363 c-0.1226196,0.0501099-0.2427368,0.1039429-0.3614502,0.1670532c-0.1185303,0.0628052-0.2318726,0.1345215-0.3450928,0.2102051 c-0.0653687,0.0437012-0.1359863,0.0735474-0.1995239,0.121582C41.9902534,11.8953505,21.9404488,31.4954491,9.8476763,61.8294334 c-10.8154297,27.129879-12.7329102,56.2480431-5.6992188,86.5449219 c4.4477539,19.159668,11.7978516,32.7553711,14.5649405,37.8735352l0.4467773,0.828125 c19.3017578,36.0126953,26.7509766,101.9970703,22.140625,196.1210938 c-0.0537109,1.0927734,0.3432617,2.1611328,1.0981445,2.9541016c0.7553711,0.7919922,1.8022461,1.2412109,2.8969727,1.2412109 h33.1406288c1.0820312,0,2.1176758-0.4384766,2.8710938-1.2148438s1.1601562-1.8251953,1.1269531-2.9072266 c-0.9614258-31.5839844-0.996582-62.1835938-0.1044922-90.9472656c0.3579102-11.5341797,0.9472656-23.1044922,4.1879883-37.7861328 c3.3759766-15.2900391,8.8100586-30.1826172,16.1518555-44.2636719c1.0214844-1.9589844,0.2612305-4.375-1.6977539-5.3964844 c-1.9594727-1.0195312-4.375-0.2617188-5.3959961,1.6972656c-7.6669922,14.7050781-13.3427734,30.2617188-16.8696289,46.2382812 c-3.3896484,15.3564453-4.0024414,27.3349609-4.3725586,39.2626953 c-0.8583984,27.6738281-0.8632812,57.0283203-0.0161133,87.3173828H49.4892769 c4.253418-93.3701172-3.5751953-159.3349609-23.2783203-196.0957031l-0.4599609-0.8535156 c-2.8745117-5.3164062-9.6054688-17.7666016-13.8095694-35.8779297c-0.5563354-2.3961792-1.0314941-4.7810059-1.4697876-7.1604614 c45.5175781,17.4514771,85.1160889,42.1434326,117.7310104,73.4905396 c13.0644531,12.5556641,32.8071289,31.5302734,51.9926758,61.6835938 c15.8847656,24.9648438,24.171875,42.5810547,30.8310547,56.734375 c9.2104492,19.5771484,14.7695312,31.3935547,31.6708984,43.296875 c15.523941,10.9326172,37.5102692,13.3886719,71.9975739,13.3886719c12.2021484,0,25.9755859-0.3076172,41.5742188-0.65625 c76.3320312-1.7060547,122.40625-2.7363281,129.8515625-25.8623047 C492.7475891,340.8943787,464.0786438,314.1922302,438.7817688,290.6297302z M478.5054016,359.0291443 c-5.7011719,17.7070312-54.6572266,18.8007812-122.4199219,20.3154297 c-57.9755859,1.296875-89.9179688,2.0097656-108.7812653-11.2753906 c-15.1704102-10.6835938-20.0966797-21.1542969-29.0385742-40.1611328 c-6.7558594-14.359375-15.1635742-32.2294922-31.3203125-57.6240234 c-19.7006836-30.9619141-39.859375-50.3359375-53.1987305-63.15625 C99.3343735,174.0533142,57.3839912,148.2169495,9.06075,130.3062439 c-2.782959-22.8309402-0.0377197-44.8046951,8.2185659-65.5139236 c10.6328735-26.6727867,27.8027344-44.5595665,41.3237915-55.359127 c39.889225,44.4104614,77.4378052,90.5883789,111.6298218,137.310791 c11.4785156,15.6845703,21.8144531,30.3740234,30.9335938,43.3339844 c40.2714844,57.2314453,64.5791168,91.7763672,106.3037262,97.7568359 c26.0732422,3.734375,53.8173828-4.3212891,82.4951172-23.9521484 c15.5898438,9.3515625,30.1679688,20.3105469,43.3671875,32.6044922 C454.535675,316.2361755,483.5747375,343.2830505,478.5054016,359.0291443z" style="fill: inherit;"/></g><g id="__id5_sukzyw0iog"><path d="M438.7817688,290.6297302c-14.2412109-13.2636719-30.0410156-25.0214844-46.9609375-34.9482422 c-1.3515625-0.7919922-3.0419922-0.7236328-4.3251953,0.1787109c-27.7128906,19.4921875-54.2558594,27.5898438-78.890625,24.0546875 c-38.3046875-5.4892578-60.5371246-37.0839844-100.8955231-94.440918 c-9.1391602-12.9882812-19.4980469-27.7099609-31.0205078-43.4545898 C141.6269684,94.1077499,103.061058,46.7654686,62.0625191,1.3064836c-0.052063-0.0576782-0.1143799-0.0991211-0.1689453-0.1530762 c-0.0996094-0.0986938-0.2004395-0.1929321-0.3081665-0.2792968c-0.1002808-0.0804443-0.2032471-0.1525879-0.3092651-0.2220459 c-0.112793-0.0738525-0.2261353-0.1431885-0.3447876-0.2047119c-0.1130371-0.0586548-0.227356-0.109314-0.3445435-0.1565552 c-0.1221924-0.0493164-0.2442627-0.0939331-0.3703003-0.1308594c-0.1196289-0.0349731-0.2393799-0.062439-0.3613281-0.0861206 c-0.1307983-0.0255127-0.2606812-0.0458984-0.3933105-0.0582886c-0.1208496-0.0112305-0.2405396-0.0152588-0.3618774-0.0155029 c-0.1355591-0.0004272-0.2694702,0.0043335-0.4048462,0.0177612c-0.1203613,0.0119019-0.2386475,0.031189-0.3578491,0.0540771 c-0.1328735,0.0254517-0.2634888,0.055603-0.394104,0.0949097C57.8221626,0.2030291,57.70467,0.2474016,57.58675,0.2954363 c-0.1226196,0.0501099-0.2427368,0.1039429-0.3614502,0.1670532c-0.1185303,0.0628052-0.2318726,0.1345215-0.3450928,0.2102051 c-0.0653687,0.0437012-0.1359863,0.0735474-0.1995239,0.121582C41.9902534,11.8953505,21.9404488,31.4954491,9.8476763,61.8294334 c-10.8154297,27.129879-12.7329102,56.2480431-5.6992188,86.5449219 c4.4477539,19.159668,11.7978516,32.7553711,14.5649405,37.8735352l0.4467773,0.828125 c19.3017578,36.0126953,26.7509766,101.9970703,22.140625,196.1210938 c-0.0537109,1.0927734,0.3432617,2.1611328,1.0981445,2.9541016c0.7553711,0.7919922,1.8022461,1.2412109,2.8969727,1.2412109 h33.1406288c1.0820312,0,2.1176758-0.4384766,2.8710938-1.2148438s1.1601562-1.8251953,1.1269531-2.9072266 c-0.9614258-31.5839844-0.996582-62.1835938-0.1044922-90.9472656c0.3579102-11.5341797,0.9472656-23.1044922,4.1879883-37.7861328 c3.3759766-15.2900391,8.8100586-30.1826172,16.1518555-44.2636719c1.0214844-1.9589844,0.2612305-4.375-1.6977539-5.3964844 c-1.9594727-1.0195312-4.375-0.2617188-5.3959961,1.6972656c-7.6669922,14.7050781-13.3427734,30.2617188-16.8696289,46.2382812 c-3.3896484,15.3564453-4.0024414,27.3349609-4.3725586,39.2626953 c-0.8583984,27.6738281-0.8632812,57.0283203-0.0161133,87.3173828H49.4892769 c4.253418-93.3701172-3.5751953-159.3349609-23.2783203-196.0957031l-0.4599609-0.8535156 c-2.8745117-5.3164062-9.6054688-17.7666016-13.8095694-35.8779297c-0.5563354-2.3961792-1.0314941-4.7810059-1.4697876-7.1604614 c45.5175781,17.4514771,85.1160889,42.1434326,117.7310104,73.4905396 c13.0644531,12.5556641,32.8071289,31.5302734,51.9926758,61.6835938 c15.8847656,24.9648438,24.171875,42.5810547,30.8310547,56.734375 c9.2104492,19.5771484,14.7695312,31.3935547,31.6708984,43.296875 c15.523941,10.9326172,37.5102692,13.3886719,71.9975739,13.3886719c12.2021484,0,25.9755859-0.3076172,41.5742188-0.65625 c76.3320312-1.7060547,122.40625-2.7363281,129.8515625-25.8623047 C492.7475891,340.8943787,464.0786438,314.1922302,438.7817688,290.6297302z M478.5054016,359.0291443 c-5.7011719,17.7070312-54.6572266,18.8007812-122.4199219,20.3154297 c-57.9755859,1.296875-89.9179688,2.0097656-108.7812653-11.2753906 c-15.1704102-10.6835938-20.0966797-21.1542969-29.0385742-40.1611328 c-6.7558594-14.359375-15.1635742-32.2294922-31.3203125-57.6240234 c-19.7006836-30.9619141-39.859375-50.3359375-53.1987305-63.15625 C99.3343735,174.0533142,57.3839912,148.2169495,9.06075,130.3062439 c-2.782959-22.8309402-0.0377197-44.8046951,8.2185659-65.5139236 c10.6328735-26.6727867,27.8027344-44.5595665,41.3237915-55.359127 c39.889225,44.4104614,77.4378052,90.5883789,111.6298218,137.310791 c11.4785156,15.6845703,21.8144531,30.3740234,30.9335938,43.3339844 c40.2714844,57.2314453,64.5791168,91.7763672,106.3037262,97.7568359 c26.0732422,3.734375,53.8173828-4.3212891,82.4951172-23.9521484 c15.5898438,9.3515625,30.1679688,20.3105469,43.3671875,32.6044922 C454.535675,316.2361755,483.5747375,343.2830505,478.5054016,359.0291443z" style="fill: inherit;"/></g></svg>